<svg xmlns="http://www.w3.org/2000/svg" viewBox="0 0 574 113">
  <g fill="none" fill-rule="evenodd">
    <g fill-rule="nonzero">
      <path fill="#000" d="M0 67h161v46H0z"/>
      <path fill="#FFF" d="M153.866 100.003c-.312.09-.58.133-.848.133-.937 0-1.383-.4-1.383-1.554v-8.66c0-4.575-3.66-6.796-7.988-6.796-3.302 0-5.087.4-8.612 1.82l-.714 4.62 4.6.488.67-2.265c.94-.49 1.88-.58 3.08-.58 3.26 0 3.3 2.44 3.3 4.48v.66c-1.02-.14-2.18-.18-3.3-.18-4.6 0-9.37 1.15-9.37 6.08 0 4.17 3.3 5.73 6.2 5.73 3.26 0 5.31-1.96 6.47-4 .27 2.44 1.74 3.99 4.42 3.99 1.25 0 2.55-.36 3.62-.94l-.13-3.06zm-12.316-.133c-1.74 0-2.365-1.022-2.365-2.31 0-2.176 1.785-2.753 3.838-2.753.937 0 1.963.133 2.9.266-.134 3.33-2.32 4.797-4.373 4.797zM133.83 73l-8.7 30.51h-5.67L128.164 73h5.667zm-11.69 0l-8.703 30.51h-5.667L116.472 73h5.667zm-24.1 10.526h6.024v7.195H98.04v-7.19zm0 12.835h6.024v7.2H98.04v-7.2zm-8.79-.26l4.55.45-1.25 7.02H75.017l-.58-3.02 11.067-12.66H79.21L78.32 91l-4.15-.446.713-7.017H92.51l.445 3.02L81.8 99.203h6.514l.937-3.107zM60.467 83.13c-7.23 0-10.8 4.84-10.8 10.704 0 6.396 4.284 10.17 10.487 10.17 6.426 0 11.066-4.04 11.066-10.436 0-5.596-3.525-10.437-10.754-10.437zm-.135 16.433c-3.123 0-4.73-2.665-4.73-6.13 0-3.774 1.83-5.95 4.775-5.95 2.722 0 4.91 1.82 4.91 5.86 0 3.866-1.965 6.22-4.955 6.22zm-15.84-.4h2.676v4.35H38.78V92.277c0-3.464-1.16-4.796-3.436-4.796-2.767 0-3.882 1.96-3.882 4.75v6.98h2.677v4.36H25.7V92.28c0-3.466-1.16-4.798-3.436-4.798-2.766 0-3.88 1.95-3.88 4.75v6.97h3.836v4.354H10V99.2h2.677V87.878H10v-4.352h8.434v3.02c1.205-2.132 3.302-3.42 6.113-3.42 2.9 0 5.578 1.377 6.56 4.308 1.115-2.665 3.39-4.308 6.56-4.308 3.614 0 6.916 2.176 6.916 6.928v9.105h-.09z"/>
    </g>
    <path fill="#000" d="M60.977 8.46h-5.964v34.93h5.538V49H43.59v-5.61h4.97V17.477h-.284L33.784 46.23H30.59L15.607 17.05h-.284v26.34h5.183V49H3.68v-5.61h5.538V8.46H3.254V2.85h11.502l17.537 33.938h.284L49.404 2.85h11.573v5.61zm8.875 1.348V2.495h6.46v7.313h-6.46zM81.638 49H65.095v-4.828h5.183v-22.01h-5.396v-4.9h11.644v26.91h5.112V49zm36.423 0h-14.55v-4.828h3.62l-6.6-7.952-6.6 7.952h3.27V49H83.49v-4.828h4.33l9.658-10.934-9.94-11.076H83.63v-4.9h14.91v4.9h-3.692l6.32 7.74 6.53-7.74h-3.265v-4.9h12.993v4.9h-3.55l-9.585 10.58 10.09 11.43h3.69V49zm32.95-9.372c-.38 2.887-1.77 5.29-4.19 7.207-2.41 1.917-5.58 2.875-9.51 2.875-4.68 0-8.42-1.408-11.22-4.224-2.79-2.817-4.19-6.757-4.19-11.822 0-5.017 1.35-9.112 4.05-12.283 2.7-3.17 6.35-4.75 10.94-4.75 4.22 0 7.56 1.32 10.05 3.94 2.49 2.63 3.75 5.93 3.8 9.91 0 1.28-.14 2.63-.42 4.05h-21.87c.14 3.22 1.01 5.71 2.59 7.46 1.59 1.76 3.83 2.63 6.71 2.63 4.36 0 7.06-2.01 8.1-6.03l5.19 1.07zm-6.74-9.3c.24-2.32-.3-4.38-1.63-6.178-1.32-1.8-3.29-2.698-5.89-2.698-2.46 0-4.37.816-5.75 2.45-1.37 1.633-2.2 3.774-2.48 6.425h15.76zM191.62 49h-11.29v-6.248c-2.46 4.64-6.2 6.958-11.217 6.958-4.16 0-7.46-1.408-9.9-4.224-2.433-2.817-3.652-6.686-3.652-11.61 0-3.076.47-5.868 1.42-8.377.95-2.51 2.52-4.62 4.72-6.32 2.2-1.71 4.91-2.56 8.13-2.56 4.88 0 8.38 1.89 10.51 5.68V5.05h-7.31V.153h13.49v44.02h5.12V49zm-11.29-14.626V30.54c-.046-2.603-.92-4.72-2.626-6.355-1.7-1.633-3.784-2.45-6.245-2.45-2.99 0-5.29 1.1-6.93 3.303-1.63 2.2-2.45 5.03-2.45 8.484 0 3.503.83 6.224 2.48 8.165 1.65 1.94 3.78 2.91 6.39 2.91 2.55 0 4.73-1.064 6.53-3.194 1.8-2.13 2.74-4.473 2.84-7.03zM252.038 49h-10.01L232.3 30.185h-8.804V43.39h5.822V49h-17.892v-5.61h5.61V8.46h-5.61V2.85h20.235c5.54 0 9.68 1.183 12.43 3.55s4.12 5.633 4.12 9.798c0 3.03-.84 5.68-2.52 7.952-1.68 2.272-4.03 3.858-7.06 4.757l7.67 14.483h5.75V49zm-10.72-32.66c0-2.793-.816-4.804-2.45-6.035-1.633-1.23-4.366-1.846-8.2-1.846h-7.17v16.47h7.24c3.74 0 6.44-.74 8.095-2.2 1.657-1.47 2.485-3.6 2.485-6.39zm41.677 23.288c-.38 2.887-1.775 5.29-4.19 7.207-2.413 1.917-5.584 2.875-9.513 2.875-4.685 0-8.424-1.408-11.217-4.224-2.793-2.817-4.19-6.757-4.19-11.822 0-5.017 1.35-9.112 4.048-12.283 2.7-3.17 6.344-4.75 10.935-4.75 4.212 0 7.56 1.32 10.045 3.94 2.487 2.63 3.753 5.93 3.8 9.91 0 1.28-.142 2.63-.426 4.05h-21.87c.142 3.22 1.006 5.71 2.59 7.46 1.587 1.76 3.824 2.63 6.71 2.63 4.356 0 7.054-2.01 8.095-6.03L283 39.63zm-6.745-9.3c.237-2.32-.31-4.38-1.633-6.178-1.325-1.8-3.29-2.698-5.893-2.698-2.46 0-4.378.816-5.75 2.45-1.374 1.633-2.202 3.774-2.486 6.425h15.762zm14.697-10.65c3.503-2.036 7.455-3.054 11.857-3.054 3.692 0 6.567.9 8.627 2.698 2.06 1.8 3.09 4.473 3.09 8.023v14.697c0 2.083.83 3.124 2.49 3.124.67 0 1.3-.118 1.92-.355l.07 3.7c-1.32.81-2.86 1.21-4.61 1.21-1.89 0-3.36-.56-4.4-1.7-1.04-1.13-1.61-2.7-1.7-4.68v-.07c-1.09 1.85-2.53 3.39-4.33 4.62-1.8 1.23-3.88 1.85-6.25 1.85-2.55 0-4.81-.73-6.78-2.2-1.96-1.46-2.94-3.71-2.94-6.74 0-6.48 4.95-9.73 14.84-9.73 2.18 0 4 .1 5.47.29V29c0-2.367-.46-4.213-1.38-5.538-.92-1.326-2.66-1.99-5.214-1.99-2.274 0-4.19.4-5.75 1.207l-1.21 5.19-5.05-.57 1.28-7.6zm17.324 17.11v-1.846c-2.84-.237-4.66-.355-5.46-.355-5.58 0-8.38 1.822-8.38 5.467 0 1.61.5 2.816 1.49 3.62 1 .806 2.25 1.208 3.77 1.208 2.13 0 4.04-.734 5.75-2.2 1.7-1.468 2.65-3.433 2.84-5.894zM336.74 49h-16.47v-4.828h5.11V5.052h-5.324V.15h11.573v44.02h5.11V49zm9.444-39.192V2.495h6.46v7.313h-6.46zM357.97 49h-16.543v-4.828h5.183v-22.01h-5.396v-4.9h11.644v26.91h5.112V49zm27.05-8.946c-.898 6.437-4.448 9.656-10.65 9.656-3.265 0-5.81-.887-7.632-2.663-1.822-1.775-2.733-4.248-2.733-7.42V22.02h-4.9v-4.757h4.9V7.253h6.177v10.01h12.14v4.757h-12.14v16.685c0 3.787 1.633 5.68 4.9 5.68 2.886 0 4.66-1.94 5.324-5.822l4.615 1.49zm35.36-17.892h-3.55L405.894 49l-3.905 10.153h5.04v4.97h-16.47v-4.97h5.6l3.69-10.082-11.43-26.9h-3.62v-4.9h15.12v4.9h-4.82l8.16 19.31h.42l7.03-19.31h-4.48v-4.9h14.13v4.9zm57.438 13.56c0 3.882-1.337 7.065-4.01 9.55C471.13 47.758 467.31 49 462.34 49h-22.365v-5.61h5.61V8.46h-5.61V2.85h22.08c4.45 0 7.882.994 10.296 2.982 2.42 1.988 3.63 4.662 3.63 8.023 0 2.46-.73 4.603-2.2 6.426-1.47 1.83-3.41 2.97-5.82 3.45v.29c3.22.48 5.67 1.78 7.35 3.91 1.68 2.13 2.52 4.74 2.52 7.81zm-8.733-20.305c0-2.556-.71-4.355-2.13-5.396-1.42-1.04-3.503-1.56-6.248-1.56h-8.662v14.2h8.307c2.745 0 4.887-.64 6.425-1.91 1.54-1.28 2.308-3.05 2.308-5.32zm1.775 20.022c0-2.42-.722-4.29-2.166-5.61-1.443-1.33-3.56-1.99-6.354-1.99h-10.295v15.55h8.946c6.58 0 9.87-2.65 9.87-7.96zM496.49 49h-16.47v-4.828h5.11V5.052h-5.324V.15h11.573v44.02h5.11V49zm36.85-15.833c0 4.875-1.503 8.85-4.51 11.928-3.004 3.077-6.968 4.615-11.89 4.615-4.782 0-8.592-1.49-11.432-4.473-2.84-2.982-4.26-6.91-4.26-11.786 0-4.87 1.408-8.91 4.225-12.1 2.816-3.19 6.78-4.79 11.892-4.79 5.112 0 9.052 1.58 11.822 4.72 2.77 3.15 4.153 7.11 4.153 11.89zm-6.532-.213c0-3.503-.864-6.272-2.59-8.307-1.73-2.035-4.06-3.053-6.995-3.053-2.982 0-5.313 1.053-6.993 3.16-1.68 2.106-2.52 4.887-2.52 8.342 0 3.36.815 6.13 2.45 8.307 1.632 2.177 3.963 3.266 6.992 3.266 3.03 0 5.396-1.08 7.1-3.24 1.704-2.16 2.556-4.98 2.556-8.49zm47.073-10.792h-4.89V48.22c0 5.11-1.41 9.158-4.22 12.14-2.81 2.982-6.78 4.473-11.89 4.473-3.55 0-6.65-.78-9.3-2.343-2.65-1.562-4.45-3.93-5.39-7.1l4.82-2.485c.85 2.225 2.18 3.905 3.98 5.04 1.8 1.137 3.81 1.705 6.04 1.705 2.94 0 5.3-1.018 7.1-3.053 1.8-2.035 2.7-4.875 2.7-8.52v-5.325c-2.36 4.355-6.06 6.532-11.07 6.532-3.93 0-7.194-1.36-9.8-4.082-2.6-2.722-3.902-6.497-3.902-11.325 0-4.733 1.24-8.792 3.73-12.177 2.48-3.384 6-5.076 10.54-5.076 4.923 0 8.425 1.87 10.51 5.61v-4.97h11.07v4.898zm-11.07 12.496V30.54c0-2.603-.84-4.72-2.52-6.355-1.68-1.633-3.75-2.45-6.21-2.45-2.98 0-5.26 1.09-6.85 3.267-1.58 2.177-2.38 4.994-2.38 8.45 0 3.502.78 6.164 2.35 7.986 1.57 1.823 3.6 2.734 6.11 2.734 2.7 0 4.94-.97 6.71-2.91 1.78-1.942 2.71-4.143 2.81-6.604z"/>
  </g>
</svg>
