<?xml version="1.0" encoding="UTF-8"?>
<svg width="576px" height="113px" viewBox="0 0 576 113" version="1.1" xmlns="http://www.w3.org/2000/svg" xmlns:xlink="http://www.w3.org/1999/xlink">
    <!-- Generator: Sketch 47.1 (45422) - http://www.bohemiancoding.com/sketch -->
    <title>MR Blog Logo (temp)</title>
    <desc>Created with Sketch.</desc>
    <defs></defs>
    <g id="Page-1" stroke="none" stroke-width="1" fill="none" fill-rule="evenodd">
        <g id="MR-Blog-Logo-(temp)" transform="translate(-2.000000, -18.000000)">
            <g id="moz-logo-bw-rgb" transform="translate(2.000000, 85.000000)" fill-rule="nonzero">
                <rect id="Rectangle-path" fill="#000000" x="0" y="0" width="161" height="46"></rect>
                <path d="M153.86613,33.0028653 C153.553765,33.0916905 153.286024,33.1361032 153.018283,33.1361032 C152.08119,33.1361032 151.634955,32.7363897 151.634955,31.5816619 L151.634955,22.9212034 C151.634955,18.3467049 147.975829,16.1260745 143.64735,16.1260745 C140.345212,16.1260745 138.560273,16.525788 135.035017,17.9469914 L134.321041,22.5659026 L138.917261,23.0544413 L139.586613,20.7893983 C140.523706,20.3008596 141.4608,20.2120344 142.665634,20.2120344 C145.923148,20.2120344 145.967772,22.6547278 145.967772,24.6977077 L145.967772,25.3638968 C144.941432,25.230659 143.781221,25.1862464 142.665634,25.1862464 C138.069414,25.1862464 133.294701,26.3409742 133.294701,31.2707736 C133.294701,35.4455587 136.596839,37 139.497366,37 C142.754881,37 144.807561,35.0458453 145.967772,33.0028653 C146.235513,35.4455587 147.708088,37 150.385497,37 C151.634955,37 152.929036,36.6446991 154,36.0673352 L153.86613,33.0028653 Z M141.550046,32.8696275 C139.80973,32.8696275 139.185002,31.8481375 139.185002,30.5601719 C139.185002,28.3839542 140.969941,27.8065903 143.022622,27.8065903 C143.959715,27.8065903 144.986055,27.9398281 145.923148,28.0730659 C145.789278,31.4040115 143.602727,32.8696275 141.550046,32.8696275 Z M133.830183,6 L125.128602,36.5114613 L119.461419,36.5114613 L128.163,6 L133.830183,6 Z M122.138829,6 L113.437248,36.5114613 L107.770065,36.5114613 L116.471645,6 L122.138829,6 Z M98.0421444,16.525788 L104.066315,16.525788 L104.066315,23.7206304 L98.0421444,23.7206304 L98.0421444,16.525788 Z M98.0421444,29.3610315 L104.066315,29.3610315 L104.066315,36.5558739 L98.0421444,36.5558739 L98.0421444,29.3610315 Z M89.251317,29.0945559 L93.8029129,29.5386819 L92.5534552,36.5558739 L75.0164239,36.5558739 L74.4363186,33.5358166 L85.5029439,20.8782235 L79.2110319,20.8782235 L78.3185621,23.987106 L74.1685776,23.5429799 L74.8825535,16.525788 L92.5088317,16.525788 L92.9550666,19.5458453 L81.7991943,32.2034384 L88.3142237,32.2034384 L89.251317,29.0945559 Z M60.4691664,16.1260745 C53.2401611,16.1260745 49.670282,20.9670487 49.670282,26.8295129 C49.670282,33.2249284 53.954137,37 60.156802,37 C66.5825844,37 71.2234273,32.9584527 71.2234273,26.5630372 C71.2234273,20.9670487 67.6981717,16.1260745 60.4691664,16.1260745 Z M60.3352959,32.5587393 C57.2116517,32.5587393 55.6052061,29.8939828 55.6052061,26.4297994 C55.6052061,22.6547278 57.4347691,20.47851 60.3799194,20.47851 C63.1019523,20.47851 65.2885033,22.2994269 65.2885033,26.3409742 C65.2885033,30.2048711 63.3250697,32.5587393 60.3352959,32.5587393 Z M44.4939572,32.1590258 L47.1713666,32.1590258 L47.1713666,36.5114613 L38.7821506,36.5114613 L38.7821506,25.2750716 C38.7821506,21.8108883 37.6219399,20.47851 35.3461419,20.47851 C32.5794856,20.47851 31.4638984,22.4326648 31.4638984,25.230659 L31.4638984,32.2034384 L34.1413077,32.2034384 L34.1413077,36.5558739 L25.7074682,36.5558739 L25.7074682,25.2750716 C25.7074682,21.8108883 24.5472575,20.47851 22.2714596,20.47851 C19.5048032,20.47851 18.389216,22.4326648 18.389216,25.230659 L18.389216,32.2034384 L22.2268361,32.2034384 L22.2268361,36.5558739 L10,36.5558739 L10,32.2034384 L12.6774094,32.2034384 L12.6774094,20.8782235 L10,20.8782235 L10,16.525788 L18.4338395,16.525788 L18.4338395,19.5458453 C19.6386737,17.4140401 21.7359777,16.1260745 24.5472575,16.1260745 C27.4477843,16.1260745 30.1251937,17.5028653 31.1069104,20.4340974 C32.2224977,17.769341 34.4982956,16.1260745 37.6665634,16.1260745 C41.281066,16.1260745 44.5832042,18.3022923 44.5832042,23.0544413 L44.5832042,32.1590258 L44.4939572,32.1590258 Z" id="Shape" fill="#FFFFFF"></path>
            </g>
            <text id="Mixed-Reality-Blog" font-family="ZillaSlab-SemiBold, Zilla Slab" font-size="71" font-weight="500" fill="#000000">
                <tspan x="0" y="67">Mixed Reality Blog</tspan>
            </text>
        </g>
    </g>
</svg>