<?xml version="1.0" encoding="UTF-8"?>
<svg width="308px" height="86px" viewBox="0 0 308 86" version="1.1" xmlns="http://www.w3.org/2000/svg" xmlns:xlink="http://www.w3.org/1999/xlink">
    <!-- Generator: Sketch 47.1 (45422) - http://www.bohemiancoding.com/sketch -->
    <title>Group</title>
    <desc>Created with Sketch.</desc>
    <defs></defs>
    <g id="Page-1" stroke="none" stroke-width="1" fill="none" fill-rule="evenodd">
        <g id="Artboard" transform="translate(-115.000000, -263.000000)">
            <g id="Group" transform="translate(115.000000, 263.000000)">
                <rect id="Rectangle" fill="#000000" x="0" y="0" width="308" height="86"></rect>
                <path d="M293.826625,64.222063 L294,70.1647564 C291.919505,71.3008596 289.405573,72 286.978328,72 C281.690402,72 278.916409,69.0286533 278.309598,64.222063 C276.142415,68.1547278 272.154799,72 265.826625,72 C260.19195,72 253.863777,69.0286533 253.863777,60.726361 C253.863777,51.1131805 262.965944,48.8409742 272.068111,48.8409742 C274.148607,48.8409742 276.402477,48.8409742 278.309598,49.1905444 L278.309598,47.8796562 C278.309598,43.7722063 278.309598,39.0530086 272.068111,39.0530086 C269.640867,39.0530086 267.820433,39.1404011 266,40.1891117 L264.69969,44.6461318 L255.857585,43.5974212 L257.331269,34.508596 C264.092879,31.7994269 267.733746,30.9255014 274.148607,30.9255014 C282.383901,30.9255014 289.665635,35.3825215 289.665635,44.3839542 L289.665635,61.4255014 C289.665635,63.7851003 290.532508,64.4842407 292.352941,64.4842407 C292.69969,64.4842407 293.306502,64.4842407 293.826625,64.222063 Z M269.900929,64.0472779 C273.888545,64.0472779 278.049536,60.9885387 278.309598,54.52149 C276.489164,54.2593123 274.582043,53.9971347 272.76161,53.9971347 C268.773994,53.9971347 265.219814,55.0458453 265.219814,59.5028653 C265.219814,61.9498567 266.606811,64.0472779 269.900929,64.0472779 Z M243.80805,11 L254.817337,11 L237.913313,71.1260745 L226.990712,71.1260745 L243.80805,11 Z M221.182663,11 L232.19195,11 L215.287926,71.1260745 L204.278638,71.1260745 L221.182663,11 Z M185.294118,45.8696275 L196.910217,45.8696275 L196.910217,31.7120344 L185.294118,31.7120344 L185.294118,45.8696275 Z M185.294118,71.1260745 L196.910217,71.1260745 L196.910217,56.9684814 L185.294118,56.9684814 L185.294118,71.1260745 Z M166.396285,62.6489971 L153.739938,62.6489971 L175.411765,37.5673352 L174.544892,31.7120344 L140.130031,31.7120344 L138.743034,45.5200573 L146.978328,46.3939828 L148.712074,40.1891117 L160.848297,40.1891117 L139.349845,65.1833811 L140.47678,71.1260745 L174.718266,71.1260745 L177.058824,57.3180516 L168.216718,56.5315186 L166.396285,62.6489971 Z M112.216718,30.9255014 C126.260062,30.9255014 133.195046,40.4512894 133.195046,51.5501433 C133.195046,64.0472779 124.092879,72 111.609907,72 C99.4736842,72 91.2383901,64.6590258 91.2383901,51.987106 C91.2383901,40.4512894 98.1733746,30.9255014 112.216718,30.9255014 Z M111.869969,63.3481375 C117.764706,63.3481375 121.578947,58.6289398 121.578947,51.1131805 C121.578947,43.247851 117.331269,39.5773639 112.043344,39.5773639 C106.321981,39.5773639 102.681115,43.9469914 102.681115,51.2879656 C102.681115,58.017192 105.888545,63.3481375 111.869969,63.3481375 Z M81.1826625,44.6461318 C81.1826625,35.2077364 74.6811146,30.9255014 67.8328173,30.9255014 C61.5913313,30.9255014 57.0835913,34.2464183 55.003096,39.4899713 C53.1826625,33.6346705 47.9814241,30.9255014 42.2600619,30.9255014 C36.7987616,30.9255014 32.7244582,33.5472779 30.3839009,37.6547278 L30.3839009,31.7120344 L14,31.7120344 L14,40.2765043 L19.2012384,40.2765043 L19.2012384,62.6489971 L14,62.6489971 L14,71.1260745 L37.752322,71.1260745 L37.752322,62.6489971 L30.3839009,62.6489971 L30.3839009,48.8409742 C30.3839009,43.3352436 32.6377709,39.4899713 37.9256966,39.4899713 C42.2600619,39.4899713 44.6006192,42.1991404 44.6006192,49.0157593 L44.6006192,71.1260745 L60.9845201,71.1260745 L60.9845201,62.6489971 L55.7832817,62.6489971 L55.7832817,48.8409742 C55.7832817,43.3352436 57.9504644,39.4899713 63.2383901,39.4899713 C67.8328173,39.4899713 70.0866873,42.1991404 70.0866873,49.0157593 L70.0866873,71.1260745 L86.4705882,71.1260745 L86.4705882,62.6489971 L81.1826625,62.6489971 L81.1826625,44.6461318 Z" id="mozilla" fill="#FFFFFF"></path>
            </g>
        </g>
    </g>
</svg>